 <svg version="1.0" xmlns="http://www.w3.org/2000/svg" width="700.000000pt" height="700.000000pt" viewBox="0 0 700.000000 700.000000" preserveAspectRatio="xMidYMid meet">

<g transform="translate(0.000000,700.000000) scale(0.100000,-0.100000)" fill="#000000" stroke="none">
<path d="M3245 6404 c-16 -2 -79 -13 -140 -24 -60 -10 -137 -22 -170 -26 -33
-3 -80 -13 -105 -22 -25 -8 -83 -25 -130 -38 -113 -30 -204 -61 -265 -90 -28
-13 -57 -24 -65 -24 -18 0 -285 -133 -309 -153 -9 -8 -24 -17 -35 -21 -36 -13
-223 -141 -341 -235 -268 -213 -509 -492 -698 -806 -43 -70 -167 -318 -167
-332 0 -6 -13 -40 -30 -75 -16 -34 -30 -71 -30 -82 0 -10 -11 -44 -24 -75 -26
-62 -59 -183 -82 -306 -61 -327 -59 -305 -59 -595 0 -290 -2 -268 59 -595 23
-123 56 -244 82 -306 13 -31 24 -65 24 -75 0 -11 14 -48 30 -82 17 -35 30 -69
30 -75 0 -14 124 -262 167 -332 189 -314 430 -593 698 -806 118 -94 305 -222
341 -235 11 -4 26 -13 35 -21 24 -20 291 -153 309 -153 8 0 37 -11 65 -24 61
-29 152 -60 265 -90 47 -13 105 -30 130 -38 25 -9 74 -19 110 -23 36 -4 112
-16 170 -27 71 -14 148 -21 240 -22 l135 -1 5 1443 c5 1420 5 1444 25 1458 16
12 222 14 1448 14 785 0 1433 2 1439 6 17 10 4 249 -20 384 -41 225 -51 276
-73 360 -11 47 -32 110 -45 141 -13 31 -24 65 -24 75 0 11 -14 48 -30 82 -17
35 -30 69 -30 75 0 14 -124 262 -167 332 -189 314 -430 593 -698 806 -118 94
-305 222 -341 235 -11 4 -26 13 -35 21 -24 20 -291 153 -309 153 -8 0 -37 11
-65 24 -62 30 -153 61 -270 91 -49 14 -101 29 -113 35 -13 6 -85 19 -160 30
-76 11 -155 25 -177 31 -39 11 -540 21 -600 13z"></path>
</g>
</svg>