<svg id="svg" version="1.1" xmlns="http://www.w3.org/2000/svg" xmlns:xlink="http://www.w3.org/1999/xlink" width="400" height="400" viewBox="0, 0, 400,400"><g id="svgg"><path id="path0" d="M165.467 35.467 C 165.320 35.613,165.200 36.333,165.200 37.067 L 165.200 38.400 158.814 38.400 C 151.904 38.400,151.600 38.500,151.600 40.774 C 151.600 41.622,149.099 41.912,144.284 41.620 C 142.365 41.504,141.600 42.139,141.600 43.849 L 141.600 45.200 136.987 45.200 C 133.646 45.200,132.332 45.338,132.221 45.700 C 132.136 45.975,131.960 46.687,131.830 47.283 C 131.600 48.334,131.500 48.370,128.497 48.483 L 125.400 48.600 125.276 50.100 C 125.142 51.716,124.907 51.806,121.327 51.612 C 119.338 51.505,118.400 52.205,118.400 53.797 L 118.400 55.166 115.300 55.283 L 112.200 55.400 112.000 56.800 C 111.828 58.004,111.632 58.219,110.600 58.335 C 108.981 58.518,108.400 59.076,108.400 60.449 C 108.400 61.674,107.986 61.799,104.540 61.613 C 103.848 61.576,103.160 61.741,103.013 61.979 C 102.865 62.218,102.549 62.292,102.311 62.145 C 102.061 61.991,101.991 62.061,102.145 62.311 C 102.292 62.549,102.230 62.858,102.007 62.996 C 101.783 63.134,101.600 63.687,101.600 64.224 C 101.600 65.096,101.430 65.200,100.000 65.200 L 98.400 65.200 98.400 66.800 L 98.400 68.400 96.800 68.400 C 95.209 68.400,95.200 68.409,95.200 69.947 L 95.200 71.495 92.159 71.690 C 88.897 71.899,88.417 72.208,88.406 74.100 C 88.400 75.116,88.277 75.200,86.800 75.200 L 85.200 75.200 85.200 76.800 C 85.200 78.393,85.193 78.400,83.643 78.400 C 81.996 78.400,81.600 78.833,81.600 80.633 C 81.600 81.389,81.389 81.600,80.633 81.600 C 78.833 81.600,78.400 81.996,78.400 83.643 C 78.400 85.193,78.393 85.200,76.800 85.200 L 75.200 85.200 75.200 86.800 C 75.200 88.364,75.168 88.400,73.790 88.400 C 72.242 88.400,71.372 89.694,71.715 91.487 C 71.808 91.976,71.744 92.289,71.572 92.183 C 70.185 91.325,68.407 94.083,68.402 97.100 C 68.400 98.350,68.338 98.400,66.800 98.400 L 65.200 98.400 65.200 100.000 C 65.200 101.502,65.129 101.600,64.029 101.600 C 62.134 101.600,61.600 102.485,61.600 105.629 L 61.600 108.400 60.000 108.400 C 58.409 108.400,58.400 108.409,58.400 109.949 C 58.400 111.447,58.347 111.506,56.800 111.754 L 55.200 112.009 55.200 115.205 L 55.200 118.400 53.643 118.400 C 51.760 118.400,51.600 118.716,51.600 122.433 L 51.600 125.200 50.000 125.200 L 48.400 125.200 48.400 128.349 L 48.400 131.498 46.812 131.752 L 45.225 132.006 45.112 136.903 L 45.000 141.800 43.768 141.677 C 42.344 141.535,41.501 142.317,41.613 143.679 C 41.994 148.324,41.589 151.600,40.633 151.600 C 38.387 151.600,38.400 151.558,38.400 158.643 L 38.400 165.200 36.798 165.200 L 35.195 165.200 35.298 198.300 L 35.400 231.400 36.890 231.524 L 38.380 231.647 38.490 238.124 L 38.600 244.600 40.100 244.724 L 41.600 244.848 41.634 248.324 C 41.701 255.043,41.568 254.583,43.488 254.722 L 45.176 254.845 45.288 259.722 L 45.400 264.600 46.884 264.723 L 48.368 264.846 48.484 268.123 L 48.600 271.400 50.100 271.524 C 51.721 271.658,51.827 271.966,51.608 275.920 C 51.513 277.646,52.189 278.400,53.832 278.400 L 55.166 278.400 55.283 281.500 L 55.400 284.600 56.878 284.723 C 58.305 284.841,58.360 284.904,58.478 286.523 C 58.636 288.699,60.592 289.173,62.210 287.427 C 62.761 286.833,63.599 286.400,64.200 286.400 C 64.892 286.400,65.844 285.803,67.059 284.605 C 68.151 283.528,69.504 282.641,70.437 282.390 C 71.512 282.101,72.179 281.614,72.590 280.819 C 72.952 280.119,73.726 279.488,74.560 279.213 C 75.316 278.964,76.234 278.302,76.601 277.742 C 76.968 277.183,78.107 276.359,79.134 275.911 C 80.160 275.463,81.564 274.490,82.254 273.748 C 83.055 272.887,83.882 272.400,84.544 272.400 C 85.289 272.400,85.753 272.065,86.198 271.204 C 86.538 270.546,87.499 269.659,88.334 269.234 C 89.169 268.808,90.438 267.912,91.155 267.242 C 91.871 266.573,93.074 265.910,93.828 265.768 C 94.773 265.591,95.355 265.183,95.700 264.456 C 95.987 263.853,96.930 263.070,97.901 262.632 C 98.835 262.209,99.600 261.714,99.600 261.532 C 99.600 260.924,100.987 259.809,102.691 259.045 C 103.618 258.629,104.697 257.931,105.088 257.493 C 105.480 257.055,106.549 256.373,107.464 255.978 C 108.379 255.583,109.240 254.904,109.378 254.468 C 109.516 254.033,110.250 253.383,111.009 253.023 C 111.768 252.663,113.222 251.647,114.241 250.765 C 115.260 249.883,116.620 249.056,117.264 248.927 C 117.998 248.780,118.649 248.278,119.010 247.580 C 119.361 246.902,120.038 246.367,120.743 246.213 C 121.397 246.069,122.424 245.306,123.105 244.458 C 123.859 243.521,124.946 242.748,126.002 242.399 C 126.939 242.090,128.065 241.339,128.526 240.714 C 129.011 240.059,130.003 239.415,130.897 239.174 C 131.957 238.888,132.553 238.449,132.815 237.761 C 133.034 237.184,133.799 236.509,134.624 236.164 C 135.410 235.836,136.602 234.942,137.273 234.177 C 138.081 233.258,139.092 232.637,140.263 232.342 C 141.549 232.019,142.191 231.592,142.609 230.782 C 142.961 230.102,143.746 229.482,144.620 229.193 C 145.424 228.928,146.238 228.316,146.473 227.800 C 146.703 227.294,147.599 226.561,148.462 226.172 C 149.326 225.783,150.663 224.869,151.433 224.143 C 152.204 223.416,153.517 222.638,154.352 222.413 C 155.339 222.147,156.027 221.660,156.319 221.018 C 156.566 220.476,157.450 219.684,158.284 219.259 C 159.118 218.833,160.160 218.088,160.599 217.602 C 161.585 216.511,163.296 215.600,164.358 215.600 C 164.834 215.600,165.369 215.156,165.683 214.501 C 165.973 213.896,166.854 213.098,167.641 212.728 C 168.429 212.357,169.375 211.593,169.744 211.030 C 170.113 210.467,171.266 209.571,172.307 209.039 C 173.348 208.506,174.616 207.677,175.125 207.196 C 175.634 206.715,176.678 206.148,177.445 205.937 C 178.293 205.703,179.010 205.177,179.275 204.595 C 179.515 204.069,180.277 203.370,180.969 203.041 C 181.661 202.713,182.957 201.729,183.849 200.855 C 184.765 199.957,186.151 199.083,187.035 198.844 C 188.028 198.577,188.747 198.090,189.000 197.511 C 189.232 196.983,189.977 196.432,190.771 196.200 C 191.631 195.949,192.419 195.333,192.881 194.551 C 193.358 193.744,194.252 193.060,195.405 192.619 C 199.562 191.032,199.563 190.998,197.570 72.490 L 197.064 42.381 198.013 41.097 C 198.676 40.200,199.013 39.116,199.129 37.506 L 199.296 35.200 182.515 35.200 C 173.285 35.200,165.613 35.320,165.467 35.467 M328.400 93.600 C 328.400 95.162,328.433 95.200,329.800 95.200 C 331.793 95.200,331.748 93.524,329.726 92.460 C 328.458 91.792,328.400 91.841,328.400 93.600 M318.173 264.844 C 317.788 265.467,318.258 265.719,319.014 265.296 C 319.616 264.959,319.620 264.893,319.057 264.677 C 318.710 264.544,318.312 264.619,318.173 264.844 M334.617 274.772 C 334.290 275.302,335.005 275.650,335.797 275.346 C 336.331 275.141,336.359 275.020,335.934 274.750 C 335.238 274.310,334.899 274.315,334.617 274.772 " stroke="none" fill="#e4341c" fill-rule="evenodd"></path><path id="path1" d="M199.514 193.557 C 198.675 193.694,197.368 194.371,196.514 195.110 C 194.477 196.873,189.807 200.273,188.475 200.961 C 187.883 201.267,187.056 201.897,186.637 202.359 C 186.218 202.822,185.653 203.200,185.381 203.200 C 185.109 203.200,184.012 203.984,182.943 204.942 C 181.874 205.900,180.370 207.000,179.600 207.387 C 178.830 207.775,177.728 208.532,177.152 209.071 C 176.576 209.609,175.562 210.354,174.900 210.725 C 173.092 211.739,170.527 213.620,168.681 215.286 C 167.776 216.103,166.487 216.996,165.817 217.270 C 164.713 217.723,163.533 218.570,158.600 222.453 C 157.720 223.145,156.437 223.950,155.749 224.241 C 155.060 224.532,154.394 225.037,154.269 225.364 C 154.144 225.691,153.447 226.265,152.721 226.641 C 151.994 227.016,149.690 228.618,147.600 230.200 C 145.510 231.782,143.220 233.376,142.512 233.743 C 141.803 234.109,140.862 234.797,140.420 235.271 C 139.978 235.746,139.005 236.509,138.258 236.967 C 136.761 237.886,132.145 241.272,131.200 242.145 C 130.870 242.450,129.868 243.069,128.973 243.521 C 128.079 243.972,127.096 244.643,126.791 245.011 C 126.485 245.380,125.327 246.275,124.217 247.000 C 123.108 247.725,121.745 248.742,121.190 249.259 C 120.634 249.777,119.509 250.543,118.690 250.963 C 117.870 251.383,117.200 251.874,117.200 252.055 C 117.200 252.236,116.435 252.771,115.500 253.244 C 114.565 253.717,113.039 254.800,112.109 255.652 C 111.179 256.503,110.253 257.200,110.052 257.200 C 109.852 257.200,108.816 257.920,107.751 258.800 C 106.686 259.680,105.628 260.400,105.400 260.400 C 105.172 260.400,104.114 261.120,103.049 262.000 C 101.984 262.880,100.985 263.600,100.829 263.600 C 100.673 263.600,99.838 264.241,98.973 265.024 C 98.108 265.807,96.873 266.728,96.228 267.071 C 95.584 267.414,94.196 268.348,93.145 269.147 C 92.093 269.946,90.041 271.410,88.583 272.400 C 87.126 273.390,85.273 274.760,84.467 275.445 C 83.660 276.131,82.460 276.993,81.800 277.362 C 81.140 277.732,79.070 279.194,77.200 280.611 C 75.330 282.029,73.125 283.555,72.300 284.003 C 71.475 284.450,70.800 284.991,70.800 285.205 C 70.800 285.418,69.806 286.154,68.591 286.840 C 67.376 287.526,66.200 288.427,65.977 288.843 C 65.734 289.297,65.138 289.602,64.486 289.605 C 61.832 289.619,61.554 289.897,61.647 292.452 L 61.731 294.800 63.466 294.800 L 65.200 294.800 65.200 296.600 L 65.200 298.400 66.800 298.400 L 68.400 298.400 68.400 301.600 L 68.400 304.800 69.977 304.800 C 71.546 304.800,71.555 304.808,71.677 306.500 C 71.799 308.192,71.808 308.201,73.500 308.323 C 75.192 308.445,75.200 308.454,75.200 310.023 C 75.200 311.596,75.204 311.600,76.800 311.600 L 78.400 311.600 78.400 313.200 L 78.400 314.800 80.000 314.800 C 81.501 314.800,81.600 314.872,81.600 315.967 C 81.600 317.978,81.954 318.400,83.643 318.400 C 85.193 318.400,85.200 318.407,85.200 320.000 L 85.200 321.600 86.800 321.600 L 88.400 321.600 88.400 323.200 L 88.400 324.800 91.777 324.800 L 95.154 324.800 95.277 326.500 C 95.396 328.150,95.444 328.204,96.900 328.324 C 98.358 328.445,98.400 328.492,98.400 330.024 C 98.400 331.596,98.404 331.600,100.000 331.600 C 101.593 331.600,101.994 332.306,101.647 334.500 C 101.621 334.665,103.130 334.800,105.000 334.800 L 108.400 334.800 108.400 336.600 L 108.400 338.400 110.000 338.400 C 111.593 338.400,111.994 339.106,111.647 341.300 C 111.621 341.465,113.130 341.600,115.000 341.600 L 118.400 341.600 118.400 343.200 L 118.400 344.800 121.800 344.800 L 125.200 344.800 125.200 346.600 L 125.200 348.400 128.400 348.400 L 131.600 348.400 131.647 349.700 C 131.673 350.415,131.673 351.135,131.647 351.300 C 131.621 351.465,133.850 351.600,136.600 351.600 L 141.600 351.600 141.647 352.900 C 141.673 353.615,141.673 354.335,141.647 354.500 C 141.621 354.665,143.840 354.800,146.577 354.800 L 151.554 354.800 151.677 356.500 L 151.800 358.200 158.500 358.310 L 165.200 358.419 165.200 360.010 L 165.200 361.600 200.000 361.600 L 234.800 361.600 234.800 360.010 L 234.800 358.419 241.500 358.310 L 248.200 358.200 248.323 356.500 L 248.446 354.800 253.423 354.800 L 258.400 354.800 258.400 353.200 L 258.400 351.600 263.400 351.600 L 268.400 351.600 268.400 350.000 L 268.400 348.400 271.600 348.400 L 274.800 348.400 274.800 346.600 L 274.800 344.800 278.200 344.800 L 281.600 344.800 281.600 343.200 L 281.600 341.600 285.000 341.600 L 288.400 341.600 288.400 340.000 L 288.400 338.400 290.000 338.400 L 291.600 338.400 291.600 336.600 L 291.600 334.800 295.000 334.800 L 298.400 334.800 298.400 333.200 L 298.400 331.600 300.000 331.600 L 301.600 331.600 301.600 330.000 L 301.600 328.400 303.200 328.400 L 304.800 328.400 304.800 326.600 L 304.800 324.800 308.200 324.800 L 311.600 324.800 311.600 323.200 L 311.600 321.600 313.200 321.600 L 314.800 321.600 314.800 320.000 C 314.800 318.457,314.847 318.400,316.120 318.400 C 316.846 318.400,317.656 318.184,317.920 317.920 C 318.184 317.656,318.400 316.846,318.400 316.120 C 318.400 314.847,318.457 314.800,320.000 314.800 L 321.600 314.800 321.600 313.200 L 321.600 311.600 323.200 311.600 C 324.796 311.600,324.800 311.596,324.800 310.023 C 324.800 308.454,324.808 308.445,326.500 308.323 C 328.192 308.201,328.201 308.192,328.323 306.500 C 328.445 304.808,328.454 304.800,330.023 304.800 L 331.600 304.800 331.600 301.600 L 331.600 298.400 333.200 298.400 L 334.800 298.400 334.800 296.600 L 334.800 294.800 336.600 294.800 L 338.400 294.800 338.400 291.600 L 338.400 288.400 340.000 288.400 L 341.600 288.400 341.600 286.600 L 341.600 284.800 343.218 284.800 L 344.837 284.800 344.718 282.100 L 344.600 279.400 343.200 279.270 C 342.430 279.199,341.440 278.806,341.000 278.397 C 339.821 277.301,338.236 276.812,336.683 277.064 C 334.892 277.355,333.735 276.698,333.020 274.986 C 332.701 274.224,332.248 273.600,332.011 273.600 C 331.775 273.600,330.801 272.880,329.846 272.000 C 328.386 270.654,327.839 270.400,326.402 270.400 C 324.644 270.400,323.504 269.589,322.991 267.973 C 322.689 267.022,321.481 266.658,319.719 266.989 C 318.232 267.268,316.400 266.124,316.400 264.917 C 316.400 264.618,315.807 264.023,315.082 263.595 C 314.357 263.167,313.368 262.283,312.885 261.630 C 312.136 260.616,311.701 260.424,309.916 260.321 C 307.953 260.207,307.756 260.096,306.686 258.500 C 306.060 257.565,305.325 256.800,305.054 256.800 C 304.783 256.800,303.812 256.080,302.896 255.200 C 301.573 253.929,300.930 253.600,299.769 253.600 C 298.574 253.600,298.041 253.308,296.845 252.000 C 295.513 250.542,295.205 250.400,293.386 250.400 C 291.672 250.400,291.278 250.246,290.595 249.307 C 290.158 248.706,289.350 247.807,288.800 247.310 C 287.167 245.834,286.232 244.911,285.684 244.236 C 285.364 243.842,284.528 243.595,283.484 243.587 C 281.634 243.573,280.902 243.156,279.824 241.500 C 279.187 240.522,278.866 240.400,276.925 240.400 C 274.586 240.400,274.089 240.105,273.056 238.109 C 272.700 237.420,272.047 236.742,271.604 236.601 C 271.162 236.461,270.328 235.728,269.752 234.973 C 268.815 233.744,268.503 233.600,266.779 233.600 C 264.985 233.600,264.754 233.479,263.392 231.816 C 261.982 230.096,261.857 230.035,259.893 230.116 C 257.915 230.198,257.823 230.152,256.717 228.524 C 256.091 227.602,255.237 226.739,254.818 226.606 C 254.400 226.473,253.691 225.743,253.243 224.982 C 252.470 223.673,252.311 223.600,250.232 223.600 C 248.321 223.600,247.945 223.466,247.319 222.562 C 245.664 220.172,245.299 219.960,243.288 220.218 C 241.549 220.441,241.337 220.371,240.600 219.340 C 240.160 218.724,239.080 217.459,238.200 216.528 C 237.320 215.597,236.263 214.446,235.852 213.970 C 235.222 213.240,234.828 213.142,233.345 213.345 C 231.474 213.602,230.925 213.290,229.551 211.191 C 228.982 210.323,228.612 210.200,226.555 210.200 C 224.263 210.200,224.189 210.165,223.421 208.737 C 222.988 207.932,222.131 206.977,221.517 206.614 C 220.902 206.252,220.400 205.708,220.400 205.406 C 220.400 204.246,218.301 203.108,216.591 203.341 C 214.691 203.599,214.341 203.423,213.102 201.589 C 212.226 200.291,212.022 200.200,210.008 200.200 C 207.951 200.200,207.802 200.128,206.788 198.644 C 206.204 197.788,205.247 196.837,204.663 196.531 C 204.078 196.225,203.600 195.742,203.600 195.457 C 203.600 194.844,201.912 193.175,201.374 193.257 C 201.168 193.288,200.331 193.423,199.514 193.557 " stroke="none" fill="#5ddb43" fill-rule="evenodd"></path><path id="path2" d="M226.400 39.599 C 224.184 40.377,219.870 40.672,206.800 40.940 L 201.800 41.042 201.699 115.502 L 201.598 189.962 202.634 190.998 C 203.204 191.568,204.240 192.138,204.935 192.266 C 206.611 192.573,207.881 193.395,208.192 194.375 C 208.360 194.903,208.945 195.263,209.923 195.440 C 211.974 195.811,213.364 196.580,214.150 197.780 C 214.615 198.490,215.175 198.800,215.992 198.800 C 216.810 198.800,217.686 199.287,218.883 200.406 C 219.827 201.289,221.050 202.112,221.600 202.234 C 223.554 202.667,224.381 203.185,224.617 204.124 C 224.805 204.874,225.275 205.172,226.833 205.532 C 229.092 206.053,230.800 207.043,230.800 207.831 C 230.800 208.127,231.559 208.574,232.487 208.823 C 233.416 209.074,234.809 209.896,235.587 210.654 C 236.364 211.411,237.450 212.126,238.000 212.243 C 239.877 212.642,240.812 213.188,241.245 214.139 C 241.563 214.836,242.302 215.264,244.007 215.738 C 245.684 216.204,246.565 216.708,247.156 217.538 C 247.710 218.317,248.451 218.768,249.434 218.928 C 250.415 219.087,251.406 219.691,252.476 220.782 C 253.554 221.882,254.408 222.400,255.142 222.400 C 256.530 222.400,258.000 223.431,258.000 224.405 C 258.000 224.967,258.389 225.234,259.500 225.435 C 261.565 225.809,263.072 226.633,263.842 227.808 C 264.292 228.495,264.857 228.800,265.677 228.800 C 266.532 228.800,267.310 229.252,268.463 230.416 C 269.397 231.360,270.591 232.129,271.332 232.265 C 273.011 232.573,274.281 233.395,274.592 234.375 C 274.760 234.903,275.345 235.263,276.323 235.440 C 278.340 235.805,279.872 236.634,280.609 237.758 C 280.990 238.339,281.770 238.788,282.647 238.930 C 283.566 239.079,284.544 239.665,285.413 240.586 C 286.207 241.428,287.298 242.111,288.079 242.254 C 289.780 242.567,291.077 243.382,291.376 244.326 C 291.535 244.826,292.393 245.289,293.974 245.729 C 295.689 246.206,296.561 246.703,297.162 247.547 C 297.704 248.307,298.490 248.803,299.435 248.980 C 300.375 249.157,301.405 249.802,302.379 250.826 C 303.457 251.960,304.204 252.400,305.049 252.400 C 306.519 252.400,308.000 253.406,308.000 254.405 C 308.000 254.967,308.389 255.234,309.500 255.435 C 311.540 255.805,313.070 256.630,313.810 257.759 C 314.209 258.368,314.972 258.789,315.964 258.948 C 317.078 259.126,317.784 259.566,318.534 260.549 C 319.261 261.502,320.019 261.987,321.084 262.182 C 322.940 262.521,324.261 263.332,324.576 264.326 C 324.735 264.827,325.596 265.290,327.193 265.734 C 328.901 266.209,329.815 266.723,330.429 267.554 C 331.000 268.327,331.769 268.790,332.742 268.948 C 333.749 269.111,334.528 269.597,335.259 270.519 C 336.081 271.556,336.818 271.966,338.559 272.356 C 339.792 272.632,341.049 273.107,341.354 273.411 C 342.013 274.070,342.755 273.389,343.545 271.400 C 343.808 270.740,344.558 269.591,345.211 268.846 C 345.865 268.101,346.400 267.138,346.400 266.706 C 346.400 265.483,347.634 263.087,348.742 262.159 C 349.646 261.403,349.753 261.002,349.811 258.159 C 349.877 254.945,350.275 253.765,352.044 251.549 C 352.837 250.555,353.134 248.912,353.182 245.247 C 353.196 244.215,353.555 243.560,354.700 242.480 L 356.200 241.066 356.289 236.633 C 356.338 234.195,356.480 231.781,356.605 231.269 C 356.838 230.307,359.774 227.159,360.174 227.441 C 360.298 227.528,360.326 227.496,360.237 227.370 C 360.147 227.243,360.211 226.658,360.379 226.070 C 360.556 225.451,360.443 223.736,360.110 222.000 C 358.967 216.038,359.067 179.903,360.243 173.902 C 360.719 171.475,360.706 171.001,360.143 170.100 C 359.834 169.605,359.721 169.197,359.891 169.193 C 360.061 169.190,359.608 168.808,358.885 168.345 C 356.797 167.007,356.385 165.782,356.431 161.052 C 356.475 156.599,356.286 155.948,354.405 154.067 C 353.248 152.909,352.924 151.592,353.181 149.088 C 353.289 148.034,352.402 145.515,351.601 144.600 C 350.285 143.098,349.900 141.867,349.798 138.833 C 349.684 135.451,349.387 134.400,348.545 134.400 C 348.231 134.400,347.859 134.085,347.717 133.700 C 347.575 133.315,347.315 132.902,347.139 132.783 C 346.820 132.565,346.486 131.210,346.430 129.907 C 346.413 129.526,345.770 128.566,345.000 127.773 C 344.230 126.980,343.600 126.109,343.600 125.837 C 343.600 124.746,342.223 121.360,341.531 120.751 C 340.818 120.123,339.873 116.528,340.258 115.907 C 340.362 115.738,340.212 115.597,339.924 115.594 C 339.514 115.589,339.520 115.511,339.953 115.237 C 340.357 114.982,340.144 114.807,339.166 114.593 C 337.584 114.245,336.403 113.568,336.394 113.004 C 336.390 112.782,335.830 111.970,335.149 111.200 C 333.677 109.537,333.266 108.569,333.143 106.484 C 333.068 105.216,332.848 104.840,331.952 104.443 C 331.348 104.175,330.166 103.320,329.326 102.543 C 328.487 101.766,327.512 100.921,327.160 100.665 C 326.807 100.409,326.221 99.660,325.857 99.000 C 325.493 98.340,324.802 97.307,324.322 96.704 C 323.660 95.873,323.473 95.158,323.547 93.740 C 323.664 91.470,322.831 89.024,322.355 90.240 C 322.148 90.765,322.048 90.814,322.028 90.398 C 322.013 90.066,321.505 89.576,320.899 89.308 C 320.294 89.040,319.619 88.411,319.399 87.910 C 319.180 87.410,318.820 86.995,318.600 86.990 C 317.914 86.973,312.962 81.713,313.138 81.187 C 313.234 80.898,313.114 80.806,312.852 80.968 C 312.603 81.122,312.400 81.072,312.400 80.857 C 312.400 80.642,312.535 80.391,312.700 80.299 C 312.865 80.207,312.812 80.172,312.583 80.221 C 311.670 80.418,309.694 78.018,310.155 77.273 C 310.261 77.102,310.162 76.700,309.936 76.381 C 309.613 75.925,309.579 75.967,309.779 76.578 C 310.026 77.328,310.007 77.330,309.242 76.638 C 308.769 76.210,308.244 76.049,307.938 76.238 C 306.663 77.026,302.800 76.227,302.800 75.175 C 302.800 75.035,302.110 74.610,301.266 74.230 C 300.422 73.849,299.477 73.158,299.166 72.694 C 298.855 72.230,298.169 71.434,297.642 70.925 C 297.114 70.416,296.831 70.000,297.011 70.000 C 297.192 70.000,296.959 69.595,296.494 69.100 C 296.029 68.605,295.593 68.020,295.524 67.800 C 295.456 67.580,295.265 67.445,295.100 67.500 C 294.935 67.555,294.845 67.386,294.900 67.125 C 294.967 66.808,294.460 66.684,293.374 66.751 C 292.012 66.834,291.396 66.587,289.585 65.225 C 288.395 64.331,287.286 63.600,287.121 63.600 C 286.570 63.600,285.555 61.171,285.793 60.422 C 285.924 60.010,285.758 59.415,285.417 59.074 C 284.957 58.615,284.929 58.415,285.304 58.264 C 285.666 58.117,285.652 58.055,285.251 58.032 C 284.793 58.005,284.790 57.884,285.232 57.300 C 285.689 56.696,285.682 56.671,285.181 57.120 C 284.861 57.406,284.578 57.811,284.550 58.020 C 284.522 58.229,284.478 58.566,284.450 58.768 C 284.360 59.434,282.048 59.669,280.631 59.157 C 279.868 58.881,279.334 58.507,279.445 58.327 C 279.556 58.147,279.356 58.000,279.000 58.000 C 278.644 58.000,278.456 57.833,278.582 57.629 C 278.835 57.220,278.025 56.889,276.195 56.652 C 273.855 56.350,272.896 55.926,272.384 54.970 C 272.099 54.437,271.784 54.082,271.685 54.182 C 271.586 54.281,271.243 54.100,270.924 53.781 C 270.604 53.461,269.889 53.200,269.333 53.200 C 267.841 53.200,266.100 51.808,266.100 50.616 C 266.100 50.009,266.277 49.702,266.550 49.837 C 266.798 49.959,266.670 49.790,266.267 49.462 C 265.568 48.891,265.577 48.858,266.467 48.723 C 266.980 48.645,267.355 48.360,267.300 48.091 C 267.245 47.821,267.416 47.600,267.680 47.600 C 268.035 47.600,268.043 47.483,267.711 47.151 C 267.464 46.904,267.367 46.409,267.494 46.051 C 267.621 45.693,267.337 45.878,266.863 46.463 C 266.388 47.048,266.000 47.717,266.000 47.951 C 266.000 48.184,265.730 48.271,265.400 48.145 C 265.028 48.002,264.800 48.147,264.800 48.525 C 264.800 49.070,264.162 49.338,261.600 49.870 C 258.462 50.522,256.803 50.007,255.273 47.910 C 254.983 47.512,254.590 47.283,254.400 47.400 C 254.211 47.517,253.962 47.462,253.848 47.277 C 253.734 47.093,252.416 46.971,250.920 47.008 C 247.769 47.085,247.070 46.821,245.303 44.883 C 243.946 43.396,243.580 43.333,238.200 43.661 C 234.482 43.888,232.037 42.800,231.893 40.856 C 231.819 39.857,230.311 38.995,229.310 39.379 C 229.007 39.496,228.868 39.413,229.003 39.195 C 229.342 38.647,228.929 38.710,226.400 39.599 M265.417 45.572 C 265.144 46.014,265.775 46.492,266.144 46.122 C 266.525 45.742,266.454 45.200,266.024 45.200 C 265.817 45.200,265.544 45.368,265.417 45.572 M285.417 55.572 C 285.144 56.014,285.775 56.492,286.144 56.122 C 286.525 55.742,286.454 55.200,286.024 55.200 C 285.817 55.200,285.544 55.368,285.417 55.572 M286.700 56.588 C 285.792 57.837,285.814 58.364,286.772 58.292 C 287.197 58.260,287.456 58.091,287.349 57.917 C 287.241 57.743,287.379 57.600,287.656 57.600 C 288.029 57.600,288.043 57.483,287.711 57.151 C 287.464 56.904,287.358 56.454,287.474 56.151 C 287.788 55.334,287.490 55.502,286.700 56.588 " stroke="none" fill="#f4d34c" fill-rule="evenodd"></path><path id="path3" d="M199.129 37.506 C 199.013 39.116,198.676 40.200,198.013 41.097 L 197.064 42.381 197.570 72.490 C 198.488 127.053,198.738 147.142,198.769 168.646 C 198.804 192.778,199.020 191.239,195.405 192.619 C 194.252 193.060,193.358 193.744,192.881 194.551 C 192.419 195.333,191.631 195.949,190.771 196.200 C 189.977 196.432,189.232 196.983,189.000 197.511 C 188.747 198.090,188.028 198.577,187.035 198.844 C 186.151 199.083,184.765 199.957,183.849 200.855 C 182.957 201.729,181.661 202.713,180.969 203.041 C 180.277 203.370,179.515 204.069,179.275 204.595 C 179.010 205.177,178.293 205.703,177.445 205.937 C 176.678 206.148,175.634 206.715,175.125 207.196 C 174.616 207.677,173.348 208.506,172.307 209.039 C 171.266 209.571,170.113 210.467,169.744 211.030 C 169.375 211.593,168.429 212.357,167.641 212.728 C 166.854 213.098,165.973 213.896,165.683 214.501 C 165.369 215.156,164.834 215.600,164.358 215.600 C 163.296 215.600,161.585 216.511,160.599 217.602 C 160.160 218.088,159.118 218.833,158.284 219.259 C 157.450 219.684,156.566 220.476,156.319 221.018 C 156.027 221.660,155.339 222.147,154.352 222.413 C 153.517 222.638,152.204 223.416,151.433 224.143 C 150.663 224.869,149.326 225.783,148.462 226.172 C 147.599 226.561,146.703 227.294,146.473 227.800 C 146.238 228.316,145.424 228.928,144.620 229.193 C 143.746 229.482,142.961 230.102,142.609 230.782 C 142.191 231.592,141.549 232.019,140.263 232.342 C 139.092 232.637,138.081 233.258,137.273 234.177 C 136.602 234.942,135.410 235.836,134.624 236.164 C 133.799 236.509,133.034 237.184,132.815 237.761 C 132.553 238.449,131.957 238.888,130.897 239.174 C 130.003 239.415,129.011 240.059,128.526 240.714 C 128.065 241.339,126.939 242.090,126.002 242.399 C 124.946 242.748,123.859 243.521,123.105 244.458 C 122.424 245.306,121.397 246.069,120.743 246.213 C 120.038 246.367,119.361 246.902,119.010 247.580 C 118.649 248.278,117.998 248.780,117.264 248.927 C 116.620 249.056,115.260 249.883,114.241 250.765 C 113.222 251.647,111.768 252.663,111.009 253.023 C 110.250 253.383,109.516 254.033,109.378 254.468 C 109.240 254.904,108.379 255.583,107.464 255.978 C 106.549 256.373,105.480 257.055,105.088 257.493 C 104.697 257.931,103.618 258.629,102.691 259.045 C 100.987 259.809,99.600 260.924,99.600 261.532 C 99.600 261.714,98.835 262.209,97.901 262.632 C 96.930 263.070,95.987 263.853,95.700 264.456 C 95.355 265.183,94.773 265.591,93.828 265.768 C 93.074 265.910,91.871 266.573,91.155 267.242 C 90.438 267.912,89.169 268.808,88.334 269.234 C 87.499 269.659,86.538 270.546,86.198 271.204 C 85.753 272.065,85.289 272.400,84.544 272.400 C 83.882 272.400,83.055 272.887,82.254 273.748 C 81.564 274.490,80.160 275.463,79.134 275.911 C 78.107 276.359,76.968 277.183,76.601 277.742 C 76.234 278.302,75.316 278.964,74.560 279.213 C 73.726 279.488,72.952 280.119,72.590 280.819 C 72.179 281.614,71.512 282.101,70.437 282.390 C 69.504 282.641,68.151 283.528,67.059 284.605 C 65.861 285.785,64.889 286.400,64.219 286.400 C 62.991 286.400,61.448 287.826,61.769 288.664 C 61.896 288.995,62.000 289.414,62.000 289.595 C 62.000 290.287,65.411 289.482,66.200 288.603 C 66.640 288.113,67.855 287.229,68.900 286.639 C 69.945 286.049,70.800 285.398,70.800 285.191 C 70.800 284.985,71.521 284.448,72.402 283.999 C 73.284 283.549,74.227 282.825,74.499 282.391 C 74.770 281.956,75.210 281.600,75.475 281.600 C 75.740 281.600,77.148 280.699,78.603 279.598 C 80.058 278.497,81.766 277.328,82.400 277.000 C 83.033 276.673,83.787 276.081,84.076 275.686 C 84.364 275.290,85.410 274.471,86.400 273.864 C 87.390 273.257,89.550 271.775,91.200 270.569 C 92.850 269.364,94.732 268.068,95.383 267.689 C 96.034 267.310,97.067 266.521,97.678 265.936 C 98.290 265.350,99.467 264.461,100.295 263.959 C 101.123 263.457,102.507 262.451,103.372 261.723 C 104.237 260.995,105.140 260.400,105.379 260.400 C 105.619 260.400,106.686 259.680,107.751 258.800 C 108.816 257.920,109.852 257.200,110.052 257.200 C 110.253 257.200,111.179 256.503,112.109 255.652 C 113.039 254.800,114.565 253.717,115.500 253.244 C 116.435 252.771,117.200 252.236,117.200 252.055 C 117.200 251.874,117.875 251.383,118.700 250.963 C 119.525 250.543,120.589 249.803,121.064 249.318 C 121.540 248.833,122.898 247.816,124.082 247.058 C 125.266 246.301,126.485 245.380,126.791 245.011 C 127.096 244.643,128.079 243.972,128.973 243.521 C 129.868 243.069,130.870 242.450,131.200 242.145 C 132.145 241.272,136.761 237.886,138.258 236.967 C 139.005 236.509,139.979 235.744,140.423 235.267 C 140.867 234.791,141.952 234.032,142.835 233.582 C 143.717 233.132,144.539 232.502,144.662 232.182 C 144.785 231.862,145.075 231.600,145.307 231.600 C 145.539 231.600,147.012 230.634,148.580 229.454 C 150.149 228.273,152.019 227.004,152.737 226.633 C 153.454 226.262,154.144 225.691,154.269 225.364 C 154.394 225.037,155.060 224.532,155.749 224.241 C 156.437 223.950,157.720 223.145,158.600 222.453 C 163.561 218.548,164.722 217.719,165.914 217.230 C 166.636 216.934,167.540 216.295,167.921 215.809 C 168.303 215.324,169.422 214.422,170.408 213.805 C 171.394 213.188,172.791 212.169,173.514 211.541 C 174.237 210.914,175.060 210.400,175.344 210.400 C 175.628 210.400,176.297 209.932,176.830 209.361 C 177.364 208.790,178.520 207.954,179.400 207.505 C 180.280 207.055,181.874 205.902,182.943 204.943 C 184.012 203.985,185.067 203.200,185.288 203.200 C 185.509 203.200,186.255 202.737,186.945 202.172 C 188.214 201.132,189.116 200.490,193.322 197.630 C 194.600 196.762,196.209 195.500,196.898 194.826 C 197.588 194.152,198.442 193.600,198.796 193.600 C 200.703 193.600,200.705 193.479,199.946 100.133 C 199.495 44.532,199.504 42.411,200.210 40.933 C 201.478 38.279,201.525 35.200,200.298 35.200 C 199.364 35.200,199.285 35.356,199.129 37.506 M357.100 142.088 C 357.595 142.327,358.021 142.900,358.046 143.361 C 358.089 144.136,358.108 144.141,358.290 143.426 C 358.486 142.657,357.481 141.572,356.624 141.627 C 356.391 141.642,356.605 141.849,357.100 142.088 M204.100 194.660 C 203.260 195.007,203.541 195.944,204.663 196.531 C 205.247 196.837,206.199 197.788,206.779 198.644 C 208.144 200.660,210.603 201.124,211.024 199.446 C 211.420 197.870,209.467 196.400,206.979 196.400 C 206.327 196.400,206.018 196.136,205.928 195.504 C 205.801 194.612,205.053 194.267,204.100 194.660 M213.900 200.676 C 212.964 200.920,213.016 201.816,214.025 202.825 C 215.558 204.358,217.667 202.821,216.221 201.223 C 215.475 200.399,215.204 200.335,213.900 200.676 M220.900 204.667 C 220.054 205.005,220.344 205.922,221.517 206.614 C 222.131 206.977,222.986 207.932,223.417 208.737 C 224.451 210.668,227.004 211.120,227.424 209.446 C 227.830 207.827,225.964 206.400,223.441 206.400 C 222.736 206.400,222.419 206.153,222.328 205.531 C 222.193 204.616,221.730 204.335,220.900 204.667 M230.089 211.136 C 229.703 211.382,229.820 211.720,230.570 212.530 C 231.755 213.808,232.651 213.901,233.006 212.781 C 233.485 211.272,231.574 210.194,230.089 211.136 M237.677 215.230 C 237.755 215.466,237.991 215.660,238.200 215.660 C 238.409 215.660,238.645 215.466,238.723 215.230 C 238.802 214.994,238.567 214.800,238.200 214.800 C 237.833 214.800,237.598 214.994,237.677 215.230 M239.465 217.068 C 239.198 217.335,240.099 218.950,241.045 219.900 C 241.972 220.831,243.557 220.511,243.853 219.333 C 244.287 217.602,240.754 215.779,239.465 217.068 M246.888 221.137 C 246.256 221.538,247.724 223.600,248.642 223.600 C 249.413 223.600,250.031 221.953,249.505 221.300 C 249.050 220.735,247.658 220.649,246.888 221.137 M254.477 225.230 C 254.555 225.466,254.791 225.660,255.000 225.660 C 255.209 225.660,255.445 225.466,255.523 225.230 C 255.602 224.994,255.367 224.800,255.000 224.800 C 254.633 224.800,254.398 224.994,254.477 225.230 M256.230 227.151 C 255.750 227.928,257.802 230.198,259.099 230.324 C 260.870 230.497,261.431 228.687,259.957 227.554 C 258.965 226.791,256.610 226.536,256.230 227.151 M263.382 231.230 C 263.064 231.743,264.710 233.600,265.483 233.600 C 266.384 233.600,266.835 231.884,266.087 231.300 C 265.302 230.687,263.742 230.646,263.382 231.230 M270.800 234.951 C 270.800 235.034,271.070 235.326,271.400 235.600 C 271.891 236.008,272.000 235.980,272.000 235.449 C 272.000 235.092,271.730 234.800,271.400 234.800 C 271.070 234.800,270.800 234.868,270.800 234.951 M272.800 237.226 C 272.800 239.847,276.794 241.673,277.384 239.322 C 277.596 238.475,277.456 238.092,276.727 237.531 C 275.723 236.758,272.800 236.532,272.800 237.226 M280.086 241.138 C 279.699 241.384,279.836 241.727,280.641 242.532 C 281.926 243.817,282.237 243.851,282.814 242.774 C 283.598 241.308,281.655 240.143,280.086 241.138 M287.677 245.230 C 287.755 245.466,287.991 245.660,288.200 245.660 C 288.409 245.660,288.645 245.466,288.723 245.230 C 288.802 244.994,288.567 244.800,288.200 244.800 C 287.833 244.800,287.598 244.994,287.677 245.230 M289.465 247.068 C 289.198 247.335,290.099 248.950,291.045 249.900 C 291.972 250.831,293.557 250.511,293.853 249.333 C 294.287 247.602,290.754 245.779,289.465 247.068 M296.842 251.166 C 296.392 251.450,296.492 251.729,297.353 252.589 C 298.575 253.812,299.340 253.750,299.535 252.414 C 299.736 251.041,298.179 250.319,296.842 251.166 M357.952 253.513 C 357.821 254.307,357.879 254.681,358.101 254.459 C 358.303 254.257,358.401 253.667,358.319 253.146 C 358.193 252.345,358.137 252.402,357.952 253.513 M304.477 255.230 C 304.555 255.466,304.791 255.660,305.000 255.660 C 305.209 255.660,305.445 255.466,305.523 255.230 C 305.602 254.994,305.367 254.800,305.000 254.800 C 304.633 254.800,304.398 254.994,304.477 255.230 M306.230 257.151 C 305.750 257.928,307.802 260.198,309.099 260.324 C 310.870 260.497,311.431 258.687,309.957 257.554 C 308.965 256.791,306.610 256.536,306.230 257.151 M313.700 261.065 C 312.756 261.446,313.202 262.391,314.800 263.400 C 315.680 263.956,316.400 264.646,316.400 264.935 C 316.400 266.196,318.214 267.239,319.930 266.965 C 322.958 266.481,322.463 264.248,319.094 263.194 C 318.162 262.902,316.988 262.244,316.484 261.732 C 315.603 260.836,314.765 260.635,313.700 261.065 M319.014 265.296 C 318.258 265.719,317.788 265.467,318.173 264.844 C 318.312 264.619,318.710 264.544,319.057 264.677 C 319.620 264.893,319.616 264.959,319.014 265.296 M323.005 267.192 C 322.745 267.612,323.405 269.063,324.235 269.892 C 325.205 270.862,327.083 270.523,327.384 269.322 C 327.826 267.561,323.944 265.673,323.005 267.192 M330.026 271.176 C 329.302 271.633,329.975 272.559,331.665 273.434 C 332.283 273.753,332.902 274.465,333.040 275.017 C 333.563 277.101,336.484 277.916,338.000 276.400 C 339.354 275.046,338.189 273.737,334.800 272.805 C 334.030 272.594,333.173 272.056,332.897 271.610 C 332.370 270.762,331.005 270.556,330.026 271.176 M335.934 274.750 C 336.359 275.020,336.331 275.141,335.797 275.346 C 335.005 275.650,334.290 275.302,334.617 274.772 C 334.899 274.315,335.238 274.310,335.934 274.750 M347.967 276.784 C 347.860 277.416,347.443 277.866,346.800 278.044 C 345.918 278.288,345.900 278.325,346.651 278.360 C 347.696 278.409,348.523 277.486,348.300 276.519 C 348.173 275.965,348.097 276.025,347.967 276.784 M341.398 278.403 C 341.118 278.857,341.612 279.068,343.500 279.301 C 344.339 279.405,344.800 279.290,344.800 278.977 C 344.800 278.140,341.867 277.645,341.398 278.403 " stroke="none" fill="#d46c2c" fill-rule="evenodd"></path><path id="path4" d="M201.121 37.292 C 201.023 38.452,200.613 40.090,200.210 40.933 C 199.504 42.411,199.495 44.532,199.946 100.133 C 200.559 175.534,200.551 192.480,199.900 193.172 C 199.488 193.609,199.604 193.655,200.552 193.431 C 201.417 193.227,201.919 193.360,202.564 193.967 C 203.098 194.467,203.876 194.741,204.612 194.687 C 205.571 194.617,205.824 194.773,205.927 195.500 C 206.023 196.171,206.328 196.405,207.128 196.419 C 209.092 196.454,211.002 197.688,210.984 198.910 C 210.976 199.510,211.179 200.000,211.435 200.000 C 211.692 200.000,212.115 200.257,212.376 200.571 C 212.745 201.016,213.112 201.050,214.043 200.725 C 215.455 200.233,216.983 201.259,216.662 202.484 C 216.523 203.017,216.707 203.200,217.384 203.200 C 217.883 203.200,218.751 203.561,219.311 204.001 C 219.871 204.442,220.750 204.757,221.264 204.701 C 221.951 204.627,222.230 204.824,222.320 205.450 C 222.415 206.109,222.801 206.348,224.037 206.514 C 226.211 206.806,227.682 207.821,227.525 208.921 C 227.370 209.999,229.457 211.193,230.985 210.901 C 232.232 210.662,233.323 211.486,233.065 212.472 C 232.913 213.053,233.110 213.200,234.037 213.200 C 234.686 213.200,235.484 213.535,235.842 213.958 C 238.477 217.066,238.605 217.150,240.331 216.919 C 242.497 216.628,244.166 217.619,243.895 219.035 C 243.760 219.743,243.889 220.000,244.379 220.000 C 244.746 220.000,245.396 220.256,245.824 220.569 C 246.279 220.903,247.054 221.048,247.699 220.919 C 249.219 220.617,250.063 221.381,249.588 222.631 C 249.237 223.556,249.292 223.600,250.816 223.600 C 252.181 223.600,252.524 223.784,253.188 224.876 C 254.203 226.545,255.403 227.150,257.216 226.907 C 259.182 226.643,260.943 227.739,260.689 229.068 C 260.558 229.755,260.694 230.000,261.206 230.000 C 261.589 230.000,262.120 230.262,262.386 230.583 C 262.698 230.959,263.267 231.087,263.986 230.943 C 265.723 230.595,266.863 231.382,266.397 232.607 C 266.041 233.544,266.097 233.600,267.383 233.600 C 268.441 233.600,268.937 233.869,269.601 234.801 C 270.752 236.418,271.873 236.954,273.887 236.851 C 276.265 236.729,277.722 237.732,277.387 239.258 C 277.163 240.278,277.244 240.400,278.145 240.400 C 278.699 240.400,279.257 240.568,279.384 240.774 C 279.511 240.979,280.205 241.052,280.926 240.935 C 282.591 240.664,283.480 241.530,282.814 242.774 C 282.407 243.535,282.482 243.600,283.757 243.600 C 285.075 243.600,286.400 244.420,286.400 245.234 C 286.400 246.093,288.864 247.115,290.427 246.906 C 292.647 246.608,294.171 247.645,293.853 249.237 C 293.647 250.264,293.733 250.400,294.586 250.400 C 295.118 250.400,295.667 250.586,295.808 250.812 C 295.948 251.039,296.633 251.125,297.331 251.004 C 299.010 250.712,299.761 251.247,299.510 252.557 C 299.340 253.447,299.452 253.600,300.271 253.600 C 300.847 253.600,301.897 254.240,302.896 255.200 C 304.638 256.874,304.885 256.966,307.267 256.825 C 309.404 256.698,310.938 257.808,310.646 259.270 C 310.463 260.185,310.561 260.400,311.161 260.400 C 311.569 260.400,312.123 260.666,312.393 260.992 C 312.750 261.421,313.084 261.476,313.616 261.192 C 314.754 260.582,315.490 260.721,316.484 261.732 C 316.988 262.244,318.162 262.902,319.094 263.194 C 321.143 263.835,322.048 264.751,321.906 266.038 C 321.806 266.947,321.902 266.993,323.668 266.870 C 326.234 266.692,327.739 267.658,327.387 269.258 C 327.201 270.106,327.286 270.400,327.719 270.400 C 328.040 270.400,328.523 270.666,328.793 270.992 C 329.150 271.421,329.484 271.476,330.016 271.192 C 331.218 270.548,332.205 270.741,333.125 271.800 C 333.603 272.350,334.273 272.800,334.613 272.800 C 336.606 272.800,339.036 274.811,338.425 275.953 C 337.750 277.215,340.266 278.207,344.096 278.190 C 347.862 278.172,348.049 278.005,348.305 274.429 C 348.502 271.682,348.538 271.600,349.574 271.600 C 351.240 271.600,351.600 270.914,351.600 267.744 L 351.600 264.848 353.100 264.724 L 354.600 264.600 354.712 259.723 L 354.824 254.847 356.310 254.723 C 358.105 254.574,358.282 254.035,358.353 248.500 C 358.399 244.847,358.413 244.799,359.400 244.750 C 359.950 244.722,360.625 244.678,360.900 244.650 C 361.272 244.613,361.428 242.942,361.510 238.100 C 361.615 231.859,361.652 231.600,362.436 231.600 C 364.986 231.600,364.804 234.158,364.760 198.886 C 364.722 168.773,364.629 165.119,363.900 165.176 C 363.735 165.189,363.150 165.200,362.600 165.200 L 361.600 165.200 361.594 159.100 C 361.587 152.377,361.547 152.219,359.743 151.828 L 358.487 151.556 358.336 147.159 C 358.175 142.454,358.066 142.210,355.900 141.739 L 354.800 141.500 354.800 136.937 C 354.800 132.134,354.808 132.153,352.800 131.866 C 351.850 131.731,351.790 131.565,351.600 128.562 C 351.466 126.446,351.235 125.383,350.900 125.350 C 350.625 125.322,349.950 125.278,349.400 125.250 C 348.456 125.203,348.400 125.072,348.394 122.900 C 348.388 120.519,347.737 118.637,346.888 118.550 C 346.620 118.522,346.048 118.478,345.617 118.450 C 344.922 118.406,344.820 118.051,344.717 115.314 L 344.600 112.228 343.100 111.874 C 341.802 111.568,341.600 111.368,341.600 110.384 C 341.600 109.141,341.084 108.651,339.695 108.573 C 338.462 108.505,338.459 108.499,338.366 105.791 C 338.261 102.741,337.912 102.095,336.195 101.773 C 334.938 101.537,334.800 101.381,334.800 100.198 C 334.800 98.812,334.288 98.400,332.567 98.400 C 331.808 98.400,331.600 98.190,331.600 97.424 C 331.600 96.887,331.417 96.334,331.193 96.196 C 330.970 96.058,330.902 95.758,331.044 95.530 C 331.212 95.257,330.883 95.206,330.088 95.381 C 328.558 95.717,328.447 95.514,328.356 92.233 C 328.273 89.202,327.774 88.400,325.971 88.400 C 324.849 88.400,324.481 87.646,324.751 85.904 C 324.776 85.742,324.078 85.494,323.199 85.353 C 321.698 85.113,321.600 85.015,321.600 83.739 C 321.600 82.329,320.189 81.289,318.931 81.771 C 318.639 81.883,318.385 81.756,318.367 81.487 C 318.190 78.907,317.798 78.417,315.900 78.406 C 315.042 78.401,314.790 78.202,314.754 77.500 C 314.637 75.218,314.782 75.363,312.500 75.246 C 311.748 75.208,311.600 74.971,311.600 73.808 C 311.600 72.268,310.977 71.935,307.800 71.777 C 306.920 71.733,305.896 71.676,305.525 71.649 C 305.070 71.616,304.810 71.178,304.725 70.300 C 304.616 69.167,304.407 68.952,303.100 68.629 C 301.754 68.297,301.600 68.127,301.600 66.972 C 301.600 65.614,301.079 65.200,299.367 65.200 C 298.624 65.200,298.400 64.987,298.400 64.276 C 298.400 62.592,297.521 61.916,295.171 61.793 C 293.977 61.731,292.696 61.662,292.324 61.640 C 291.841 61.611,291.613 61.172,291.524 60.100 C 291.404 58.647,291.347 58.596,289.721 58.478 C 288.560 58.394,288.102 58.199,288.237 57.847 C 288.842 56.272,287.129 54.598,286.205 55.861 C 285.822 56.384,285.655 56.413,285.399 55.999 C 285.172 55.631,285.232 55.572,285.600 55.800 C 285.946 56.014,286.027 55.967,285.838 55.662 C 285.681 55.408,284.663 55.200,283.576 55.200 C 281.748 55.200,281.596 55.125,281.550 54.200 C 281.460 52.393,281.408 52.278,280.600 52.104 C 280.160 52.010,278.810 51.879,277.600 51.814 C 276.390 51.749,275.265 51.674,275.100 51.648 C 274.935 51.622,274.800 51.066,274.800 50.414 C 274.800 48.845,273.881 48.400,270.639 48.400 C 268.631 48.400,268.072 48.277,268.229 47.869 C 268.840 46.277,267.137 44.587,266.205 45.861 C 265.822 46.384,265.655 46.413,265.399 45.999 C 265.168 45.624,265.236 45.569,265.638 45.802 C 265.971 45.995,266.064 45.980,265.865 45.764 C 265.501 45.367,265.118 45.326,261.100 45.251 C 258.561 45.203,258.400 45.145,258.400 44.276 C 258.400 41.963,257.820 41.769,250.500 41.638 C 248.553 41.603,248.400 41.529,248.400 40.629 C 248.400 38.619,247.669 38.400,240.971 38.400 L 234.800 38.400 234.800 37.433 C 234.800 35.108,235.770 35.235,217.814 35.209 L 201.300 35.185 201.121 37.292 M229.003 39.195 C 228.868 39.413,229.007 39.496,229.310 39.379 C 230.311 38.995,231.819 39.857,231.893 40.856 C 232.037 42.800,234.482 43.888,238.200 43.661 C 243.580 43.333,243.946 43.396,245.303 44.883 C 247.070 46.821,247.769 47.085,250.920 47.008 C 252.416 46.971,253.734 47.093,253.848 47.277 C 253.962 47.462,254.211 47.517,254.400 47.400 C 254.590 47.283,254.983 47.512,255.273 47.910 C 256.803 50.007,258.462 50.522,261.600 49.870 C 264.162 49.338,264.800 49.070,264.800 48.525 C 264.800 48.147,265.028 48.002,265.400 48.145 C 265.730 48.271,266.000 48.184,266.000 47.951 C 266.000 47.717,266.388 47.048,266.863 46.463 C 267.337 45.878,267.621 45.693,267.494 46.051 C 267.367 46.409,267.464 46.904,267.711 47.151 C 268.043 47.483,268.035 47.600,267.680 47.600 C 267.416 47.600,267.245 47.821,267.300 48.091 C 267.355 48.360,266.980 48.645,266.467 48.723 C 265.577 48.858,265.568 48.891,266.267 49.462 C 266.670 49.790,266.798 49.959,266.550 49.837 C 266.277 49.702,266.100 50.009,266.100 50.616 C 266.100 51.808,267.841 53.200,269.333 53.200 C 269.889 53.200,270.604 53.461,270.924 53.781 C 271.243 54.100,271.586 54.281,271.685 54.182 C 271.784 54.082,272.099 54.437,272.384 54.970 C 272.896 55.926,273.855 56.350,276.195 56.652 C 278.025 56.889,278.835 57.220,278.582 57.629 C 278.456 57.833,278.644 58.000,279.000 58.000 C 279.356 58.000,279.556 58.147,279.445 58.327 C 279.334 58.507,279.868 58.881,280.631 59.157 C 282.048 59.669,284.360 59.434,284.450 58.768 C 284.478 58.566,284.522 58.229,284.550 58.020 C 284.578 57.811,284.861 57.406,285.181 57.120 C 285.682 56.671,285.689 56.696,285.232 57.300 C 284.790 57.884,284.793 58.005,285.251 58.032 C 285.652 58.055,285.666 58.117,285.304 58.264 C 284.929 58.415,284.957 58.615,285.417 59.074 C 285.758 59.415,285.924 60.010,285.793 60.422 C 285.555 61.171,286.570 63.600,287.121 63.600 C 287.286 63.600,288.395 64.331,289.585 65.225 C 291.396 66.587,292.012 66.834,293.374 66.751 C 294.460 66.684,294.967 66.808,294.900 67.125 C 294.845 67.386,294.935 67.555,295.100 67.500 C 295.265 67.445,295.456 67.580,295.524 67.800 C 295.593 68.020,296.029 68.605,296.494 69.100 C 296.959 69.595,297.192 70.000,297.011 70.000 C 296.831 70.000,297.114 70.416,297.642 70.925 C 298.169 71.434,298.855 72.230,299.166 72.694 C 299.477 73.158,300.422 73.849,301.266 74.230 C 302.110 74.610,302.800 75.035,302.800 75.175 C 302.800 76.227,306.663 77.026,307.938 76.238 C 308.244 76.049,308.769 76.210,309.242 76.638 C 310.007 77.330,310.026 77.328,309.779 76.578 C 309.579 75.967,309.613 75.925,309.936 76.381 C 310.162 76.700,310.261 77.102,310.155 77.273 C 309.694 78.018,311.670 80.418,312.583 80.221 C 312.812 80.172,312.865 80.207,312.700 80.299 C 312.535 80.391,312.400 80.642,312.400 80.857 C 312.400 81.072,312.603 81.122,312.852 80.968 C 313.114 80.806,313.234 80.898,313.138 81.187 C 312.962 81.713,317.914 86.973,318.600 86.990 C 318.820 86.995,319.180 87.410,319.399 87.910 C 319.619 88.411,320.294 89.040,320.899 89.308 C 321.505 89.576,322.013 90.066,322.028 90.398 C 322.048 90.814,322.148 90.765,322.355 90.240 C 322.831 89.024,323.664 91.470,323.547 93.740 C 323.473 95.158,323.660 95.873,324.322 96.704 C 324.802 97.307,325.493 98.340,325.857 99.000 C 326.221 99.660,326.807 100.409,327.160 100.665 C 327.512 100.921,328.487 101.766,329.326 102.543 C 330.166 103.320,331.348 104.175,331.952 104.443 C 332.848 104.840,333.068 105.216,333.143 106.484 C 333.266 108.569,333.677 109.537,335.149 111.200 C 335.830 111.970,336.390 112.782,336.394 113.004 C 336.403 113.568,337.584 114.245,339.166 114.593 C 340.144 114.807,340.357 114.982,339.953 115.237 C 339.520 115.511,339.514 115.589,339.924 115.594 C 340.212 115.597,340.362 115.738,340.258 115.907 C 339.873 116.528,340.818 120.123,341.531 120.751 C 342.223 121.360,343.600 124.746,343.600 125.837 C 343.600 126.109,344.230 126.980,345.000 127.773 C 345.770 128.566,346.413 129.526,346.430 129.907 C 346.486 131.210,346.820 132.565,347.139 132.783 C 347.315 132.902,347.575 133.315,347.717 133.700 C 347.859 134.085,348.231 134.400,348.545 134.400 C 349.387 134.400,349.684 135.451,349.798 138.833 C 349.900 141.867,350.285 143.098,351.601 144.600 C 352.402 145.515,353.289 148.034,353.181 149.088 C 352.924 151.592,353.248 152.909,354.405 154.067 C 356.286 155.948,356.475 156.599,356.431 161.052 C 356.385 165.782,356.797 167.007,358.885 168.345 C 359.608 168.808,360.061 169.190,359.891 169.193 C 359.721 169.197,359.834 169.605,360.143 170.100 C 360.706 171.001,360.719 171.475,360.243 173.902 C 359.067 179.903,358.967 216.038,360.110 222.000 C 360.443 223.736,360.556 225.451,360.379 226.070 C 360.211 226.658,360.147 227.243,360.237 227.370 C 360.326 227.496,360.298 227.528,360.174 227.441 C 359.774 227.159,356.838 230.307,356.605 231.269 C 356.480 231.781,356.338 234.195,356.289 236.633 L 356.200 241.066 354.700 242.480 C 353.555 243.560,353.196 244.215,353.182 245.247 C 353.134 248.912,352.837 250.555,352.044 251.549 C 350.275 253.765,349.877 254.945,349.811 258.159 C 349.753 261.002,349.646 261.403,348.742 262.159 C 347.634 263.087,346.400 265.483,346.400 266.706 C 346.400 267.138,345.865 268.101,345.211 268.846 C 344.558 269.591,343.808 270.740,343.545 271.400 C 342.755 273.389,342.013 274.070,341.354 273.411 C 341.049 273.107,339.792 272.632,338.559 272.356 C 336.818 271.966,336.081 271.556,335.259 270.519 C 334.528 269.597,333.749 269.111,332.742 268.948 C 331.769 268.790,331.000 268.327,330.429 267.554 C 329.815 266.723,328.901 266.209,327.193 265.734 C 325.596 265.290,324.735 264.827,324.576 264.326 C 324.261 263.332,322.940 262.521,321.084 262.182 C 320.019 261.987,319.261 261.502,318.534 260.549 C 317.784 259.566,317.078 259.126,315.964 258.948 C 314.972 258.789,314.209 258.368,313.810 257.759 C 313.070 256.630,311.540 255.805,309.500 255.435 C 308.389 255.234,308.000 254.967,308.000 254.405 C 308.000 253.406,306.519 252.400,305.049 252.400 C 304.204 252.400,303.457 251.960,302.379 250.826 C 301.405 249.802,300.375 249.157,299.435 248.980 C 298.490 248.803,297.704 248.307,297.162 247.547 C 296.561 246.703,295.689 246.206,293.974 245.729 C 292.393 245.289,291.535 244.826,291.376 244.326 C 291.077 243.382,289.780 242.567,288.079 242.254 C 287.298 242.111,286.207 241.428,285.413 240.586 C 284.544 239.665,283.566 239.079,282.647 238.930 C 281.770 238.788,280.990 238.339,280.609 237.758 C 279.872 236.634,278.340 235.805,276.323 235.440 C 275.345 235.263,274.760 234.903,274.592 234.375 C 274.281 233.395,273.011 232.573,271.332 232.265 C 270.591 232.129,269.397 231.360,268.463 230.416 C 267.310 229.252,266.532 228.800,265.677 228.800 C 264.857 228.800,264.292 228.495,263.842 227.808 C 263.072 226.633,261.565 225.809,259.500 225.435 C 258.389 225.234,258.000 224.967,258.000 224.405 C 258.000 223.431,256.530 222.400,255.142 222.400 C 254.408 222.400,253.554 221.882,252.476 220.782 C 251.406 219.691,250.415 219.087,249.434 218.928 C 248.451 218.768,247.710 218.317,247.156 217.538 C 246.565 216.708,245.684 216.204,244.007 215.738 C 242.302 215.264,241.563 214.836,241.245 214.139 C 240.812 213.188,239.877 212.642,238.000 212.243 C 237.450 212.126,236.364 211.411,235.587 210.654 C 234.809 209.896,233.416 209.074,232.487 208.823 C 231.559 208.574,230.800 208.127,230.800 207.831 C 230.800 207.043,229.092 206.053,226.833 205.532 C 225.275 205.172,224.805 204.874,224.617 204.124 C 224.381 203.185,223.554 202.667,221.600 202.234 C 221.050 202.112,219.827 201.289,218.883 200.406 C 217.686 199.287,216.810 198.800,215.992 198.800 C 215.175 198.800,214.615 198.490,214.150 197.780 C 213.364 196.580,211.974 195.811,209.923 195.440 C 208.945 195.263,208.360 194.903,208.192 194.375 C 207.881 193.395,206.611 192.573,204.935 192.266 C 204.240 192.138,203.204 191.568,202.634 190.998 L 201.598 189.962 201.699 115.502 L 201.800 41.042 206.800 40.940 C 219.870 40.672,224.184 40.377,226.400 39.599 C 228.929 38.710,229.342 38.647,229.003 39.195 M287.474 56.151 C 287.358 56.454,287.464 56.904,287.711 57.151 C 288.043 57.483,288.029 57.600,287.656 57.600 C 287.379 57.600,287.241 57.743,287.349 57.917 C 287.456 58.091,287.197 58.260,286.772 58.292 C 285.814 58.364,285.792 57.837,286.700 56.588 C 287.490 55.502,287.788 55.334,287.474 56.151 M238.723 215.230 C 238.645 215.466,238.409 215.660,238.200 215.660 C 237.991 215.660,237.755 215.466,237.677 215.230 C 237.598 214.994,237.833 214.800,238.200 214.800 C 238.567 214.800,238.802 214.994,238.723 215.230 M255.523 225.230 C 255.445 225.466,255.209 225.660,255.000 225.660 C 254.791 225.660,254.555 225.466,254.477 225.230 C 254.398 224.994,254.633 224.800,255.000 224.800 C 255.367 224.800,255.602 224.994,255.523 225.230 M272.000 235.449 C 272.000 235.980,271.891 236.008,271.400 235.600 C 271.070 235.326,270.800 235.034,270.800 234.951 C 270.800 234.868,271.070 234.800,271.400 234.800 C 271.730 234.800,272.000 235.092,272.000 235.449 M288.723 245.230 C 288.645 245.466,288.409 245.660,288.200 245.660 C 287.991 245.660,287.755 245.466,287.677 245.230 C 287.598 244.994,287.833 244.800,288.200 244.800 C 288.567 244.800,288.802 244.994,288.723 245.230 M305.523 255.230 C 305.445 255.466,305.209 255.660,305.000 255.660 C 304.791 255.660,304.555 255.466,304.477 255.230 C 304.398 254.994,304.633 254.800,305.000 254.800 C 305.367 254.800,305.602 254.994,305.523 255.230 " stroke="none" fill="#f2bf44" fill-rule="evenodd"></path></g></svg>